HIERARCHY
ROOT Hips
{
	OFFSET 0.00 0.00 0.00
	CHANNELS 6 Xposition Yposition Zposition Xrotation Yrotation Zrotation
	JOINT Spine
	{
		OFFSET 0.00000 1.72418 2.58627
		CHANNELS 3 Xrotation Yrotation Zrotation
		JOINT Spine1
		{
			OFFSET 0.00000 0.59880 3.39597
			CHANNELS 3 Xrotation Yrotation Zrotation
			JOINT Spine2
			{
				OFFSET 0.00000 0.30055 3.43524
				CHANNELS 3 Xrotation Yrotation Zrotation
				JOINT Spine3
				{
					OFFSET 0.00000 0.00000 3.44836
					CHANNELS 3 Xrotation Yrotation Zrotation
					JOINT Neck
					{
						OFFSET 0.00000 -1.29313 9.05195
						CHANNELS 3 Xrotation Yrotation Zrotation
						JOINT Head
						{
							OFFSET 0.00000 -0.82335 4.66946
							CHANNELS 3 Xrotation Yrotation Zrotation
							End Site
							{
								OFFSET 0.00000 0.00001 5.58203
							}
						}
					}
					JOINT RightShoulder
					{
						OFFSET -1.18828 -1.98046 6.41673
						CHANNELS 3 Xrotation Yrotation Zrotation
						JOINT RightArm
						{
							OFFSET -5.90180 0.00000 0.00000
							CHANNELS 3 Xrotation Yrotation Zrotation
							JOINT RightForeArm
							{
								OFFSET -11.45951 0.00000 0.00000
								CHANNELS 3 Xrotation Yrotation Zrotation
								JOINT RightHand
								{
									OFFSET -10.63451 0.00000 0.00000
									CHANNELS 3 Xrotation Yrotation Zrotation
									JOINT RightHandEnd
									{
										OFFSET -2.86944 0.00000 0.00000
										CHANNELS 3 Xrotation Yrotation Zrotation
										End Site
										{
											OFFSET -2.86944 0.00000 0.00000
										}
									}
									JOINT RightHandThumb1
									{
										OFFSET -1.14778 -1.91296 -0.76518
										CHANNELS 3 Yrotation Xrotation Zrotation
										End Site
										{
											OFFSET -2.77167 -0.74267 0.00000
										}
									}
								}
							}
						}
					}
					JOINT LeftShoulder
					{
						OFFSET 1.18828 -1.98046 6.41673
						CHANNELS 3 Xrotation Yrotation Zrotation
						JOINT LeftArm
						{
							OFFSET 5.90180 0.00000 0.00000
							CHANNELS 3 Xrotation Yrotation Zrotation
							JOINT LeftForeArm
							{
								OFFSET 11.45951 0.00000 0.00000
								CHANNELS 3 Xrotation Yrotation Zrotation
								JOINT LeftHand
								{
									OFFSET 10.63451 0.00000 0.00000
									CHANNELS 3 Xrotation Yrotation Zrotation
									JOINT LeftHandEnd
									{
										OFFSET 2.86944 0.00000 0.00000
										CHANNELS 3 Xrotation Yrotation Zrotation
										End Site
										{
											OFFSET 2.86944 0.00000 0.00000
										}
									}
									JOINT LeftHandThumb1
									{
										OFFSET 1.14778 -1.91296 -0.76518
										CHANNELS 3 Yrotation Xrotation Zrotation
										End Site
										{
											OFFSET 2.77167 -0.74267 0.00000
										}
									}
								}
							}
						}
					}
				}
			}
		}
	}
	JOINT RightUpLeg
	{
		OFFSET -3.52524 0.00000 -1.02984
		CHANNELS 3 Xrotation Yrotation Zrotation
		JOINT RightLeg
		{
			OFFSET 0.00001 0.00000 -17.80965
			CHANNELS 3 Xrotation Yrotation Zrotation
			JOINT RightFoot
			{
				OFFSET 0.00001 0.00000 -17.00908
				CHANNELS 3 Xrotation Yrotation Zrotation
				JOINT RightToeBase
				{
					OFFSET 0.00000 -5.55853 -2.02314
					CHANNELS 3 Xrotation Yrotation Zrotation
					End Site
					{
						OFFSET 0.00000 -2.85188 -0.00000
					}
				}
			}
		}
	}
	JOINT LeftUpLeg
	{
		OFFSET 3.52524 0.00000 -1.02984
		CHANNELS 3 Xrotation Yrotation Zrotation
		JOINT LeftLeg
		{
			OFFSET 0.00001 0.00000 -17.80965
			CHANNELS 3 Xrotation Yrotation Zrotation
			JOINT LeftFoot
			{
				OFFSET 0.00001 0.00000 -17.00908
				CHANNELS 3 Xrotation Yrotation Zrotation
				JOINT LeftToeBase
				{
					OFFSET 0.00000 -5.55853 -2.02314
					CHANNELS 3 Xrotation Yrotation Zrotation
					End Site
					{
						OFFSET 0.00000 -2.85188 -0.00000
					}
				}
			}
		}
	}
}
MOTION
Frames: 6
Frame Time: 0.008342
 2.6457 -102.2309 36.4539 0.1629 0.7341 -175.4234 0.5440 -0.8949 -0.4881 0.3175 0.5018 -0.0349 0.4286 -0.5894 -1.2167 -0.2731 0.0922 0.1273 -2.4212 -0.7154 -2.0988 -2.3506 0.4140 -0.7782 2.9878 4.0964 -2.0442 3.2888 0.2099 2.4058 0.0000 0.0000 11.1935 -11.5054 15.8642 0.1165 0.0000 0.0000 -0.0000 0.0000 -0.0000 0.0000 7.4604 -6.0333 0.2484 2.7548 4.0663 5.2418 -0.0000 -0.0000 -18.0027 -9.6494 -15.2056 -7.2203 0.0000 -0.0000 -0.0000 -0.0000 0.0000 0.0000 -4.9164 4.8528 -26.6690 16.5242 0.0000 0.0000 -12.5482 -0.8496 -0.3358 -3.8349 0.0000 -0.0000 -6.7550 -2.9582 10.8623 15.6210 0.0000 0.0000 -10.2850 5.4468 3.9287 3.3322 0.0000 0.0000
 2.6449 -102.2215 36.4575 0.1361 0.7357 -175.4011 0.5284 -0.8681 -0.4938 0.3139 0.5104 -0.0362 0.3988 -0.5837 -1.2449 -0.2753 0.1007 0.1200 -2.3791 -0.7831 -2.1335 -2.3469 0.4141 -0.7575 2.8900 4.2171 -2.0865 3.2883 0.3309 2.3192 0.0000 0.0000 11.1162 -11.4858 16.1314 0.0428 0.0000 0.0000 0.0000 -0.0000 -0.0000 0.0000 7.3321 -6.1809 0.2579 2.6289 3.9733 5.3664 -0.0000 -0.0000 -17.8438 -9.7493 -15.3765 -7.1398 -0.0000 -0.0000 0.0000 0.0000 0.0000 0.0000 -4.9155 4.8519 -26.7570 16.4838 0.0000 0.0000 -12.4998 -0.8471 -0.3450 -3.5154 0.0000 -0.0000 -6.7205 -2.9653 10.9009 15.5747 0.0000 0.0000 -10.4996 5.7824 3.8171 3.0835 0.0000 0.0000
 2.6437 -102.2092 36.4627 0.1028 0.7420 -175.3747 0.5083 -0.8299 -0.5013 0.3109 0.5227 -0.0356 0.3609 -0.5766 -1.2825 -0.2779 0.1115 0.1127 -2.3272 -0.8652 -2.1777 -2.3395 0.4120 -0.7318 2.7607 4.3663 -2.1406 3.2907 0.4927 2.2078 0.0000 0.0000 11.0242 -11.4546 16.4724 -0.0412 0.0000 0.0000 0.0000 0.0000 -0.0000 -0.0000 7.1608 -6.3639 0.2686 2.4802 3.8460 5.5225 -0.0000 -0.0000 -17.6418 -9.8747 -15.5933 -7.0356 0.0000 -0.0000 -0.0000 -0.0000 0.0000 -0.0000 -4.9152 4.8563 -26.8702 16.4383 0.0000 0.0000 -12.4390 -0.8513 -0.3568 -3.1512 0.0000 -0.0000 -6.6778 -2.9717 10.9569 15.5194 0.0000 0.0000 -10.7785 6.2219 3.6710 2.6344 0.0000 0.0000
 2.6421 -102.1940 36.4692 0.0645 0.7529 -175.3468 0.4858 -0.7811 -0.5099 0.3074 0.5373 -0.0350 0.3163 -0.5672 -1.3244 -0.2810 0.1244 0.1038 -2.2665 -0.9579 -2.2293 -2.3274 0.4067 -0.7027 2.6003 4.5406 -2.2040 3.2972 0.6960 2.0738 0.0000 0.0000 10.9194 -11.4125 16.8690 -0.1317 0.0000 0.0000 0.0000 0.0000 -0.0000 0.0000 6.9497 -6.5765 0.2801 2.3155 3.6822 5.7052 -0.0000 -0.0000 -17.3988 -10.0223 -15.8460 -6.9099 0.0000 0.0000 0.0000 -0.0000 0.0000 -0.0000 -4.9154 4.8674 -27.0089 16.3915 0.0000 0.0000 -12.3674 -0.8688 -0.3683 -2.7591 0.0000 -0.0000 -6.6258 -2.9773 11.0316 15.4547 0.0000 0.0000 -11.1090 6.7533 3.4936 1.9562 0.0000 0.0000
 2.6398 -102.1763 36.4771 0.0222 0.7689 -175.3208 0.4610 -0.7223 -0.5187 0.3034 0.5523 -0.0344 0.2665 -0.5543 -1.3685 -0.2845 0.1387 0.0938 -2.1989 -1.0559 -2.2852 -2.3104 0.3986 -0.6722 2.4105 4.7363 -2.2740 3.3071 0.9374 1.9229 0.0000 0.0000 10.8034 -11.3615 17.2961 -0.2224 -0.0000 0.0000 0.0000 -0.0000 -0.0000 0.0000 6.7050 -6.8112 0.2935 2.1461 3.4832 5.9050 -0.0000 -0.0000 -17.1190 -10.1824 -16.1228 -6.7652 0.0000 0.0000 -0.0000 0.0000 0.0000 0.0000 -4.9178 4.8877 -27.1726 16.3489 0.0000 0.0000 -12.2878 -0.9070 -0.3749 -2.3572 0.0000 -0.0000 -6.5646 -2.9809 11.1247 15.3792 0.0000 0.0000 -11.4706 7.3532 3.2911 1.0380 0.0000 0.0000
 2.6372 -102.1562 36.4859 -0.0208 0.7826 -175.2985 0.4356 -0.6626 -0.5288 0.2993 0.5678 -0.0342 0.2125 -0.5390 -1.4118 -0.2883 0.1540 0.0827 -2.1261 -1.1534 -2.3418 -2.2885 0.3871 -0.6425 2.1962 4.9491 -2.3473 3.3181 1.2101 1.7620 0.0000 0.0000 10.6789 -11.2999 17.7264 -0.3069 0.0000 -0.0000 -0.0000 -0.0000 -0.0000 -0.0000 6.4342 -7.0595 0.3084 1.9825 3.2534 6.1135 -0.0000 -0.0000 -16.8107 -10.3487 -16.4086 -6.6061 0.0000 -0.0000 -0.0000 -0.0000 0.0000 0.0000 -4.9189 4.9099 -27.3643 16.3090 0.0000 0.0000 -12.1996 -0.9733 -0.3714 -1.9630 0.0000 -0.0000 -6.4955 -2.9897 11.2356 15.2958 0.0000 0.0000 -11.8409 7.9875 3.0678 -0.1078 0.0000 -0.0000
